<svg width="489" height="188" viewBox="0 0 489 188" fill="none" xmlns="http://www.w3.org/2000/svg">
<mask id="path-1-outside-1" maskUnits="userSpaceOnUse" x="0.440002" y="0.76001" width="488" height="188" fill="black">
<rect fill="white" x="0.440002" y="0.76001" width="488" height="188"/>
<path d="M270.424 98.48C267.992 98.48 266.264 97.2 265.24 94.64C264.28 92.08 263.8 87.984 263.8 82.352C263.8 74.032 264.984 66.128 267.352 58.64C267.928 56.784 268.856 55.44 270.136 54.608C271.48 53.712 273.336 53.264 275.704 53.264C276.984 53.264 277.88 53.424 278.392 53.744C278.904 54.064 279.16 54.672 279.16 55.568C279.16 56.592 278.68 58.896 277.72 62.48C277.08 65.04 276.568 67.28 276.184 69.2C275.8 71.056 275.48 73.392 275.224 76.208C276.952 71.216 279 66.992 281.368 63.536C283.8 60.08 286.264 57.52 288.76 55.856C291.32 54.128 293.72 53.264 295.96 53.264C298.2 53.264 299.768 53.776 300.664 54.8C301.624 55.824 302.104 57.392 302.104 59.504C302.104 61.552 301.496 65.264 300.28 70.64C299.768 72.944 299.416 74.672 299.224 75.824C302.424 67.952 305.976 62.224 309.88 58.64C313.784 55.056 317.432 53.264 320.824 53.264C324.984 53.264 327.064 55.344 327.064 59.504C327.064 62 326.36 66.512 324.952 73.04C323.736 78.608 323.128 82.288 323.128 84.08C323.128 86.64 324.056 87.92 325.912 87.92C327.192 87.92 328.696 87.152 330.424 85.616C332.216 84.016 334.584 81.456 337.528 77.936C338.296 77.04 339.16 76.592 340.12 76.592C340.952 76.592 341.592 76.976 342.04 77.744C342.552 78.512 342.808 79.568 342.808 80.912C342.808 83.472 342.2 85.456 340.984 86.864C338.232 90.256 335.256 93.04 332.056 95.216C328.92 97.392 325.336 98.48 321.304 98.48C318.04 98.48 315.576 97.552 313.912 95.696C312.248 93.776 311.416 91.024 311.416 87.44C311.416 85.648 311.864 82.448 312.76 77.84C313.592 73.808 314.008 71.024 314.008 69.488C314.008 68.464 313.656 67.952 312.952 67.952C312.12 67.952 310.936 69.04 309.4 71.216C307.864 73.328 306.328 76.144 304.792 79.664C303.256 83.184 302.008 86.896 301.048 90.8C300.344 93.872 299.512 95.92 298.552 96.944C297.656 97.968 296.184 98.48 294.136 98.48C292.024 98.48 290.424 97.488 289.336 95.504C288.312 93.456 287.8 90.992 287.8 88.112C287.8 85.68 288.12 82.16 288.76 77.552C289.272 73.456 289.528 70.768 289.528 69.488C289.528 68.464 289.176 67.952 288.472 67.952C287.512 67.952 286.296 69.104 284.824 71.408C283.352 73.712 281.912 76.656 280.504 80.24C279.16 83.824 278.072 87.344 277.24 90.8C276.536 93.808 275.704 95.856 274.744 96.944C273.848 97.968 272.408 98.48 270.424 98.48Z"/>
<path d="M377.862 76.592C378.694 76.592 379.333 76.976 379.781 77.744C380.293 78.512 380.549 79.568 380.549 80.912C380.549 83.472 379.941 85.456 378.725 86.864C376.357 89.744 372.998 92.4 368.646 94.832C364.358 97.264 359.75 98.48 354.822 98.48C348.102 98.48 342.885 96.656 339.173 93.008C335.461 89.36 333.605 84.368 333.605 78.032C333.605 73.616 334.533 69.52 336.389 65.744C338.245 61.904 340.805 58.864 344.069 56.624C347.397 54.384 351.142 53.264 355.302 53.264C359.014 53.264 361.989 54.384 364.229 56.624C366.469 58.8 367.59 61.776 367.59 65.552C367.59 69.968 365.989 73.776 362.789 76.976C359.653 80.112 354.31 82.608 346.758 84.464C348.358 87.408 351.398 88.88 355.878 88.88C358.758 88.88 362.021 87.888 365.669 85.904C369.381 83.856 372.582 81.2 375.27 77.936C376.038 77.04 376.902 76.592 377.862 76.592ZM353.669 62.672C351.301 62.672 349.285 64.048 347.621 66.8C346.021 69.552 345.221 72.88 345.221 76.784V76.976C348.997 76.08 351.974 74.736 354.15 72.944C356.326 71.152 357.414 69.072 357.414 66.704C357.414 65.488 357.062 64.528 356.358 63.824C355.718 63.056 354.821 62.672 353.669 62.672Z"/>
<path d="M426.792 76.592C427.624 76.592 428.264 76.976 428.712 77.744C429.224 78.512 429.48 79.568 429.48 80.912C429.48 83.472 428.872 85.456 427.656 86.864C425.032 90.064 422.152 92.816 419.016 95.12C415.88 97.36 412.776 98.48 409.704 98.48C404.84 98.48 401.128 95.632 398.568 89.936C395.88 93.328 393.512 95.6 391.464 96.752C389.48 97.904 387.144 98.48 384.456 98.48C380.552 98.48 377.32 97.04 374.76 94.16C372.264 91.216 371.016 87.408 371.016 82.736C371.016 77.616 372.104 72.88 374.28 68.528C376.456 64.112 379.432 60.528 383.208 57.776C387.048 54.96 391.336 53.296 396.072 52.784C397.288 40.368 399.592 29.776 402.984 21.008C406.44 12.176 410.952 7.76001 416.52 7.76001C419.272 7.76001 421.544 9.00801 423.336 11.504C425.192 14 426.12 17.776 426.12 22.832C426.12 30 424.36 38.384 420.84 47.984C417.32 57.584 412.616 67.44 406.728 77.552C406.984 81.264 407.528 83.92 408.36 85.52C409.256 87.12 410.376 87.92 411.72 87.92C413.448 87.92 415.208 87.152 417 85.616C418.792 84.08 421.192 81.52 424.2 77.936C424.968 77.04 425.832 76.592 426.792 76.592ZM415.464 17.168C414.248 17.168 413.032 19.344 411.816 23.696C410.6 27.984 409.544 33.616 408.648 40.592C407.816 47.568 407.208 54.864 406.824 62.48C413.992 46.864 417.576 34.32 417.576 24.848C417.576 22.416 417.352 20.528 416.904 19.184C416.52 17.84 416.04 17.168 415.464 17.168ZM387.816 88.784C389.032 88.784 390.248 88.304 391.464 87.344C392.68 86.32 394.216 84.464 396.072 81.776C395.432 78.32 395.112 74.448 395.112 70.16C395.112 68.624 395.176 66.128 395.304 62.672C391.784 63.76 388.84 66.128 386.472 69.776C384.168 73.36 383.016 77.36 383.016 81.776C383.016 86.448 384.616 88.784 387.816 88.784Z"/>
<path d="M434.246 46.928C431.558 46.928 429.543 46.32 428.199 45.104C426.855 43.824 426.182 42.064 426.182 39.824C426.182 37.584 427.047 35.728 428.775 34.256C430.567 32.72 432.774 31.952 435.398 31.952C437.766 31.952 439.687 32.528 441.159 33.68C442.631 34.832 443.367 36.464 443.367 38.576C443.367 41.136 442.535 43.184 440.871 44.72C439.207 46.192 436.998 46.928 434.246 46.928ZM433.479 98.48C429.319 98.48 426.278 97.008 424.358 94.064C422.502 91.12 421.574 87.216 421.574 82.352C421.574 79.472 421.926 75.792 422.63 71.312C423.398 66.768 424.358 62.544 425.51 58.64C426.086 56.592 426.855 55.184 427.815 54.416C428.775 53.648 430.311 53.264 432.423 53.264C435.687 53.264 437.319 54.352 437.319 56.528C437.319 58.128 436.711 61.84 435.495 67.664C433.959 74.704 433.19 79.472 433.19 81.968C433.19 83.888 433.446 85.36 433.958 86.384C434.47 87.408 435.335 87.92 436.551 87.92C437.703 87.92 439.143 87.12 440.871 85.52C442.599 83.92 444.903 81.392 447.783 77.936C448.551 77.04 449.415 76.592 450.375 76.592C451.207 76.592 451.846 76.976 452.294 77.744C452.806 78.512 453.062 79.568 453.062 80.912C453.062 83.472 452.454 85.456 451.238 86.864C444.902 94.608 438.983 98.48 433.479 98.48Z"/>
<path d="M463.151 98.48C457.071 98.48 452.304 96.72 448.848 93.2C445.456 89.616 443.759 84.912 443.759 79.088C443.759 73.904 444.784 69.36 446.832 65.456C448.88 61.552 451.535 58.544 454.799 56.432C458.064 54.32 461.488 53.264 465.072 53.264C468.592 53.264 471.312 54.32 473.232 56.432C475.216 58.48 476.207 61.136 476.207 64.4C476.207 67.088 475.6 69.36 474.384 71.216C473.232 73.072 471.696 74 469.776 74C468.56 74 467.567 73.712 466.799 73.136C466.095 72.56 465.743 71.76 465.743 70.736C465.743 70.288 465.808 69.776 465.936 69.2C466.064 68.624 466.16 68.208 466.224 67.952C466.544 66.992 466.703 66.096 466.703 65.264C466.703 64.432 466.479 63.792 466.031 63.344C465.647 62.896 465.071 62.672 464.303 62.672C462.831 62.672 461.456 63.344 460.176 64.688C458.896 65.968 457.872 67.728 457.104 69.968C456.336 72.208 455.952 74.672 455.952 77.36C455.952 81.008 456.688 83.792 458.16 85.712C459.696 87.568 461.839 88.496 464.591 88.496C466.767 88.496 468.752 87.856 470.544 86.576C472.4 85.296 474.224 83.408 476.016 80.912C476.784 79.952 477.648 79.472 478.608 79.472C479.44 79.472 480.079 79.856 480.527 80.624C481.039 81.392 481.296 82.448 481.296 83.792C481.296 86.096 480.752 88.08 479.664 89.744C477.936 92.432 475.664 94.576 472.848 96.176C470.032 97.712 466.799 98.48 463.151 98.48Z"/>
<path d="M137.84 144.32C139.227 144.32 140.293 144.96 141.04 146.24C141.893 147.52 142.32 149.28 142.32 151.52C142.32 155.68 141.307 158.987 139.28 161.44C133.307 168.587 127.493 173.6 121.84 176.48C116.293 179.36 109.573 180.8 101.68 180.8C96.1333 180.8 91.0133 180.107 86.32 178.72C81.6267 177.333 75.92 175.253 69.2 172.48C63.12 169.813 57.2533 167.627 51.6 165.92C46.16 175.84 38 180.8 27.12 180.8C21.1467 180.8 16.4 179.467 12.88 176.8C9.25334 174.027 7.44 170.507 7.44 166.24C7.44 161.013 9.94667 156.693 14.96 153.28C19.9733 149.76 26.64 148 34.96 148H37.04L39.92 101.44C40.56 90.7733 42.48 81.9733 45.68 75.04C48.88 68.1067 53.3067 62.1867 58.96 57.28C63.8667 53.0133 69.4667 49.8133 75.76 47.68C82.0533 45.44 88.72 44.32 95.76 44.32C107.28 44.32 116.133 47.3067 122.32 53.28C128.507 59.2533 131.6 67.04 131.6 76.64C131.6 83.1467 130.427 88.4267 128.08 92.48C125.733 96.4267 122.48 98.4 118.32 98.4C115.333 98.4 112.987 97.7067 111.28 96.32C109.573 94.8267 108.72 92.7467 108.72 90.08C108.72 89.12 108.933 87.36 109.36 84.8C110 81.8133 110.32 79.1467 110.32 76.8C110.32 72.32 108.987 68.8 106.32 66.24C103.76 63.5733 99.8133 62.24 94.48 62.24C85.0933 62.24 77.84 65.3333 72.72 71.52C67.6 77.6 64.3467 87.2 62.96 100.32L59.28 136.64C58.7467 141.76 58.0533 146.187 57.2 149.92C64.0267 151.093 72.56 152.96 82.8 155.52C88.7733 157.013 93.36 158.08 96.56 158.72C99.76 159.36 102.587 159.68 105.04 159.68C111.227 159.68 116.507 158.667 120.88 156.64C125.36 154.507 129.573 151.147 133.52 146.56C134.8 145.067 136.24 144.32 137.84 144.32Z"/>
<path d="M150.296 94.88C145.816 94.88 142.456 93.8667 140.216 91.84C137.976 89.7067 136.856 86.7733 136.856 83.04C136.856 79.3067 138.296 76.2133 141.176 73.76C144.163 71.2 147.843 69.92 152.216 69.92C156.163 69.92 159.363 70.88 161.816 72.8C164.27 74.72 165.496 77.44 165.496 80.96C165.496 85.2267 164.11 88.64 161.336 91.2C158.563 93.6533 154.883 94.88 150.296 94.88ZM149.016 180.8C142.083 180.8 137.016 178.347 133.816 173.44C130.723 168.533 129.176 162.027 129.176 153.92C129.176 149.12 129.763 142.987 130.936 135.52C132.216 127.947 133.816 120.907 135.736 114.4C136.696 110.987 137.976 108.64 139.576 107.36C141.176 106.08 143.736 105.44 147.256 105.44C152.696 105.44 155.416 107.253 155.416 110.88C155.416 113.547 154.403 119.733 152.376 129.44C149.816 141.173 148.536 149.12 148.536 153.28C148.536 156.48 148.963 158.933 149.816 160.64C150.67 162.347 152.11 163.2 154.136 163.2C156.056 163.2 158.456 161.867 161.336 159.2C164.216 156.533 168.056 152.32 172.856 146.56C174.136 145.067 175.576 144.32 177.176 144.32C178.563 144.32 179.63 144.96 180.376 146.24C181.23 147.52 181.656 149.28 181.656 151.52C181.656 155.787 180.643 159.093 178.616 161.44C168.056 174.347 158.19 180.8 149.016 180.8Z"/>
<path d="M229.351 144.32C230.738 144.32 231.805 144.96 232.551 146.24C233.405 147.52 233.831 149.28 233.831 151.52C233.831 155.787 232.818 159.093 230.791 161.44C226.205 167.093 221.191 171.733 215.751 175.36C210.418 178.987 204.338 180.8 197.511 180.8C188.125 180.8 181.138 176.533 176.551 168C172.071 159.467 169.831 148.427 169.831 134.88C169.831 121.867 171.485 107.04 174.791 90.4C178.205 73.76 183.165 59.4667 189.671 47.52C196.285 35.5733 204.125 29.6 213.191 29.6C218.311 29.6 222.311 32 225.191 36.8C228.178 41.4933 229.671 48.2667 229.671 57.12C229.671 69.8133 226.151 84.5333 219.111 101.28C212.071 118.027 202.525 134.613 190.471 151.04C191.218 155.413 192.445 158.56 194.151 160.48C195.858 162.293 198.098 163.2 200.871 163.2C205.245 163.2 209.085 161.973 212.391 159.52C215.698 156.96 219.911 152.64 225.031 146.56C226.311 145.067 227.751 144.32 229.351 144.32ZM209.671 45.44C207.218 45.44 204.445 49.8667 201.351 58.72C198.258 67.5733 195.538 78.56 193.191 91.68C190.845 104.8 189.565 117.387 189.351 129.44C196.925 116.96 202.951 104.48 207.431 92C211.911 79.4133 214.151 67.9467 214.151 57.6C214.151 49.4933 212.658 45.44 209.671 45.44Z"/>
<path d="M241.859 94.88C237.379 94.88 234.019 93.8667 231.779 91.84C229.539 89.7067 228.419 86.7733 228.419 83.04C228.419 79.3067 229.859 76.2133 232.739 73.76C235.725 71.2 239.405 69.92 243.779 69.92C247.725 69.92 250.925 70.88 253.379 72.8C255.832 74.72 257.059 77.44 257.059 80.96C257.059 85.2267 255.672 88.64 252.899 91.2C250.125 93.6533 246.445 94.88 241.859 94.88ZM240.579 180.8C233.645 180.8 228.579 178.347 225.379 173.44C222.285 168.533 220.739 162.027 220.739 153.92C220.739 149.12 221.325 142.987 222.499 135.52C223.779 127.947 225.379 120.907 227.299 114.4C228.259 110.987 229.539 108.64 231.139 107.36C232.739 106.08 235.299 105.44 238.819 105.44C244.259 105.44 246.979 107.253 246.979 110.88C246.979 113.547 245.965 119.733 243.939 129.44C241.379 141.173 240.099 149.12 240.099 153.28C240.099 156.48 240.525 158.933 241.379 160.64C242.232 162.347 243.672 163.2 245.699 163.2C247.619 163.2 250.019 161.867 252.899 159.2C255.779 156.533 259.619 152.32 264.419 146.56C265.699 145.067 267.139 144.32 268.739 144.32C270.125 144.32 271.192 144.96 271.939 146.24C272.792 147.52 273.219 149.28 273.219 151.52C273.219 155.787 272.205 159.093 270.179 161.44C259.619 174.347 249.752 180.8 240.579 180.8Z"/>
<path d="M279.954 180.8C273.34 180.8 268.06 178.4 264.114 173.6C260.167 168.8 258.194 162.507 258.194 154.72C258.194 146.187 260.167 138.133 264.114 130.56C268.06 122.88 273.287 116.747 279.794 112.16C286.407 107.467 293.394 105.12 300.754 105.12C303.1 105.12 304.647 105.6 305.394 106.56C306.247 107.413 306.94 109.013 307.474 111.36C309.714 110.933 312.06 110.72 314.514 110.72C319.74 110.72 322.354 112.587 322.354 116.32C322.354 118.56 321.554 123.893 319.954 132.32C317.5 144.587 316.274 153.12 316.274 157.92C316.274 159.52 316.647 160.8 317.394 161.76C318.247 162.72 319.314 163.2 320.594 163.2C322.62 163.2 325.074 161.92 327.954 159.36C330.834 156.693 334.727 152.427 339.634 146.56C340.914 145.067 342.354 144.32 343.954 144.32C345.34 144.32 346.407 144.96 347.154 146.24C348.007 147.52 348.434 149.28 348.434 151.52C348.434 155.787 347.42 159.093 345.394 161.44C341.02 166.88 336.38 171.467 331.474 175.2C326.567 178.933 321.82 180.8 317.234 180.8C313.714 180.8 310.46 179.627 307.474 177.28C304.594 174.827 302.407 171.52 300.914 167.36C295.367 176.32 288.38 180.8 279.954 180.8ZM285.714 164.64C288.06 164.64 290.3 163.253 292.434 160.48C294.567 157.707 296.114 154.027 297.074 149.44L302.994 120C298.514 120.107 294.354 121.813 290.514 125.12C286.78 128.32 283.794 132.587 281.554 137.92C279.314 143.253 278.194 148.907 278.194 154.88C278.194 158.187 278.834 160.64 280.114 162.24C281.5 163.84 283.367 164.64 285.714 164.64Z"/>
<path d="M346.79 180.8C342.737 180.8 339.857 178.667 338.15 174.4C336.55 170.133 335.75 163.307 335.75 153.92C335.75 140.053 337.723 126.88 341.67 114.4C342.63 111.307 344.177 109.067 346.31 107.68C348.55 106.187 351.643 105.44 355.59 105.44C357.723 105.44 359.217 105.707 360.07 106.24C360.923 106.773 361.35 107.787 361.35 109.28C361.35 110.987 360.55 114.827 358.95 120.8C357.883 125.067 357.03 128.8 356.39 132C355.75 135.2 355.217 139.147 354.79 143.84C358.31 134.667 362.257 127.2 366.63 121.44C371.003 115.68 375.27 111.573 379.43 109.12C383.697 106.667 387.59 105.44 391.11 105.44C398.043 105.44 401.51 108.907 401.51 115.84C401.51 120 400.337 127.52 397.99 138.4C395.963 147.68 394.95 153.813 394.95 156.8C394.95 161.067 396.497 163.2 399.59 163.2C401.723 163.2 404.23 161.92 407.11 159.36C410.097 156.693 414.043 152.427 418.95 146.56C420.23 145.067 421.67 144.32 423.27 144.32C424.657 144.32 425.723 144.96 426.47 146.24C427.323 147.52 427.75 149.28 427.75 151.52C427.75 155.787 426.737 159.093 424.71 161.44C420.123 167.093 415.163 171.733 409.83 175.36C404.603 178.987 398.63 180.8 391.91 180.8C386.47 180.8 382.363 179.253 379.59 176.16C376.817 172.96 375.43 168.373 375.43 162.4C375.43 159.413 376.177 154.08 377.67 146.4C379.057 139.68 379.75 135.04 379.75 132.48C379.75 130.773 379.163 129.92 377.99 129.92C376.603 129.92 374.63 131.733 372.07 135.36C369.617 138.88 367.057 143.573 364.39 149.44C361.83 155.307 359.75 161.493 358.15 168C356.977 173.013 355.59 176.427 353.99 178.24C352.497 179.947 350.097 180.8 346.79 180.8Z"/>
<path d="M433.205 180.8C427.125 180.8 422.165 178.4 418.325 173.6C414.592 168.8 412.725 162.507 412.725 154.72C412.725 146.187 414.698 138.133 418.645 130.56C422.592 122.88 427.818 116.747 434.325 112.16C440.938 107.467 447.925 105.12 455.285 105.12C457.632 105.12 459.178 105.6 459.925 106.56C460.778 107.413 461.472 109.013 462.005 111.36C464.032 110.933 466.272 110.72 468.725 110.72C471.285 110.72 473.258 111.36 474.645 112.64C476.032 113.92 476.725 115.733 476.725 118.08C476.725 120.533 476.192 124.8 475.125 130.88C473.952 137.387 473.045 143.627 472.405 149.6C471.765 155.467 471.445 162.08 471.445 169.44C471.445 173.493 470.592 176.427 468.885 178.24C467.285 179.947 464.618 180.8 460.885 180.8C457.258 180.8 454.538 179.947 452.725 178.24C451.018 176.427 450.165 173.547 450.165 169.6L450.325 167.04C447.018 176.213 441.312 180.8 433.205 180.8ZM439.445 164.64C442.432 164.64 445.152 162.56 447.605 158.4C450.058 154.24 452.245 146.827 454.165 136.16L457.205 120C452.832 120.107 448.778 121.813 445.045 125.12C441.312 128.32 438.325 132.587 436.085 137.92C433.845 143.253 432.725 148.907 432.725 154.88C432.725 158.08 433.312 160.533 434.485 162.24C435.765 163.84 437.418 164.64 439.445 164.64Z"/>
</mask>
<path d="M270.424 98.48C267.992 98.48 266.264 97.2 265.24 94.64C264.28 92.08 263.8 87.984 263.8 82.352C263.8 74.032 264.984 66.128 267.352 58.64C267.928 56.784 268.856 55.44 270.136 54.608C271.48 53.712 273.336 53.264 275.704 53.264C276.984 53.264 277.88 53.424 278.392 53.744C278.904 54.064 279.16 54.672 279.16 55.568C279.16 56.592 278.68 58.896 277.72 62.48C277.08 65.04 276.568 67.28 276.184 69.2C275.8 71.056 275.48 73.392 275.224 76.208C276.952 71.216 279 66.992 281.368 63.536C283.8 60.08 286.264 57.52 288.76 55.856C291.32 54.128 293.72 53.264 295.96 53.264C298.2 53.264 299.768 53.776 300.664 54.8C301.624 55.824 302.104 57.392 302.104 59.504C302.104 61.552 301.496 65.264 300.28 70.64C299.768 72.944 299.416 74.672 299.224 75.824C302.424 67.952 305.976 62.224 309.88 58.64C313.784 55.056 317.432 53.264 320.824 53.264C324.984 53.264 327.064 55.344 327.064 59.504C327.064 62 326.36 66.512 324.952 73.04C323.736 78.608 323.128 82.288 323.128 84.08C323.128 86.64 324.056 87.92 325.912 87.92C327.192 87.92 328.696 87.152 330.424 85.616C332.216 84.016 334.584 81.456 337.528 77.936C338.296 77.04 339.16 76.592 340.12 76.592C340.952 76.592 341.592 76.976 342.04 77.744C342.552 78.512 342.808 79.568 342.808 80.912C342.808 83.472 342.2 85.456 340.984 86.864C338.232 90.256 335.256 93.04 332.056 95.216C328.92 97.392 325.336 98.48 321.304 98.48C318.04 98.48 315.576 97.552 313.912 95.696C312.248 93.776 311.416 91.024 311.416 87.44C311.416 85.648 311.864 82.448 312.76 77.84C313.592 73.808 314.008 71.024 314.008 69.488C314.008 68.464 313.656 67.952 312.952 67.952C312.12 67.952 310.936 69.04 309.4 71.216C307.864 73.328 306.328 76.144 304.792 79.664C303.256 83.184 302.008 86.896 301.048 90.8C300.344 93.872 299.512 95.92 298.552 96.944C297.656 97.968 296.184 98.48 294.136 98.48C292.024 98.48 290.424 97.488 289.336 95.504C288.312 93.456 287.8 90.992 287.8 88.112C287.8 85.68 288.12 82.16 288.76 77.552C289.272 73.456 289.528 70.768 289.528 69.488C289.528 68.464 289.176 67.952 288.472 67.952C287.512 67.952 286.296 69.104 284.824 71.408C283.352 73.712 281.912 76.656 280.504 80.24C279.16 83.824 278.072 87.344 277.24 90.8C276.536 93.808 275.704 95.856 274.744 96.944C273.848 97.968 272.408 98.48 270.424 98.48Z" fill="white"/>
<path d="M377.862 76.592C378.694 76.592 379.333 76.976 379.781 77.744C380.293 78.512 380.549 79.568 380.549 80.912C380.549 83.472 379.941 85.456 378.725 86.864C376.357 89.744 372.998 92.4 368.646 94.832C364.358 97.264 359.75 98.48 354.822 98.48C348.102 98.48 342.885 96.656 339.173 93.008C335.461 89.36 333.605 84.368 333.605 78.032C333.605 73.616 334.533 69.52 336.389 65.744C338.245 61.904 340.805 58.864 344.069 56.624C347.397 54.384 351.142 53.264 355.302 53.264C359.014 53.264 361.989 54.384 364.229 56.624C366.469 58.8 367.59 61.776 367.59 65.552C367.59 69.968 365.989 73.776 362.789 76.976C359.653 80.112 354.31 82.608 346.758 84.464C348.358 87.408 351.398 88.88 355.878 88.88C358.758 88.88 362.021 87.888 365.669 85.904C369.381 83.856 372.582 81.2 375.27 77.936C376.038 77.04 376.902 76.592 377.862 76.592ZM353.669 62.672C351.301 62.672 349.285 64.048 347.621 66.8C346.021 69.552 345.221 72.88 345.221 76.784V76.976C348.997 76.08 351.974 74.736 354.15 72.944C356.326 71.152 357.414 69.072 357.414 66.704C357.414 65.488 357.062 64.528 356.358 63.824C355.718 63.056 354.821 62.672 353.669 62.672Z" fill="white"/>
<path d="M426.792 76.592C427.624 76.592 428.264 76.976 428.712 77.744C429.224 78.512 429.48 79.568 429.48 80.912C429.48 83.472 428.872 85.456 427.656 86.864C425.032 90.064 422.152 92.816 419.016 95.12C415.88 97.36 412.776 98.48 409.704 98.48C404.84 98.48 401.128 95.632 398.568 89.936C395.88 93.328 393.512 95.6 391.464 96.752C389.48 97.904 387.144 98.48 384.456 98.48C380.552 98.48 377.32 97.04 374.76 94.16C372.264 91.216 371.016 87.408 371.016 82.736C371.016 77.616 372.104 72.88 374.28 68.528C376.456 64.112 379.432 60.528 383.208 57.776C387.048 54.96 391.336 53.296 396.072 52.784C397.288 40.368 399.592 29.776 402.984 21.008C406.44 12.176 410.952 7.76001 416.52 7.76001C419.272 7.76001 421.544 9.00801 423.336 11.504C425.192 14 426.12 17.776 426.12 22.832C426.12 30 424.36 38.384 420.84 47.984C417.32 57.584 412.616 67.44 406.728 77.552C406.984 81.264 407.528 83.92 408.36 85.52C409.256 87.12 410.376 87.92 411.72 87.92C413.448 87.92 415.208 87.152 417 85.616C418.792 84.08 421.192 81.52 424.2 77.936C424.968 77.04 425.832 76.592 426.792 76.592ZM415.464 17.168C414.248 17.168 413.032 19.344 411.816 23.696C410.6 27.984 409.544 33.616 408.648 40.592C407.816 47.568 407.208 54.864 406.824 62.48C413.992 46.864 417.576 34.32 417.576 24.848C417.576 22.416 417.352 20.528 416.904 19.184C416.52 17.84 416.04 17.168 415.464 17.168ZM387.816 88.784C389.032 88.784 390.248 88.304 391.464 87.344C392.68 86.32 394.216 84.464 396.072 81.776C395.432 78.32 395.112 74.448 395.112 70.16C395.112 68.624 395.176 66.128 395.304 62.672C391.784 63.76 388.84 66.128 386.472 69.776C384.168 73.36 383.016 77.36 383.016 81.776C383.016 86.448 384.616 88.784 387.816 88.784Z" fill="white"/>
<path d="M434.246 46.928C431.558 46.928 429.543 46.32 428.199 45.104C426.855 43.824 426.182 42.064 426.182 39.824C426.182 37.584 427.047 35.728 428.775 34.256C430.567 32.72 432.774 31.952 435.398 31.952C437.766 31.952 439.687 32.528 441.159 33.68C442.631 34.832 443.367 36.464 443.367 38.576C443.367 41.136 442.535 43.184 440.871 44.72C439.207 46.192 436.998 46.928 434.246 46.928ZM433.479 98.48C429.319 98.48 426.278 97.008 424.358 94.064C422.502 91.12 421.574 87.216 421.574 82.352C421.574 79.472 421.926 75.792 422.63 71.312C423.398 66.768 424.358 62.544 425.51 58.64C426.086 56.592 426.855 55.184 427.815 54.416C428.775 53.648 430.311 53.264 432.423 53.264C435.687 53.264 437.319 54.352 437.319 56.528C437.319 58.128 436.711 61.84 435.495 67.664C433.959 74.704 433.19 79.472 433.19 81.968C433.19 83.888 433.446 85.36 433.958 86.384C434.47 87.408 435.335 87.92 436.551 87.92C437.703 87.92 439.143 87.12 440.871 85.52C442.599 83.92 444.903 81.392 447.783 77.936C448.551 77.04 449.415 76.592 450.375 76.592C451.207 76.592 451.846 76.976 452.294 77.744C452.806 78.512 453.062 79.568 453.062 80.912C453.062 83.472 452.454 85.456 451.238 86.864C444.902 94.608 438.983 98.48 433.479 98.48Z" fill="white"/>
<path d="M463.151 98.48C457.071 98.48 452.304 96.72 448.848 93.2C445.456 89.616 443.759 84.912 443.759 79.088C443.759 73.904 444.784 69.36 446.832 65.456C448.88 61.552 451.535 58.544 454.799 56.432C458.064 54.32 461.488 53.264 465.072 53.264C468.592 53.264 471.312 54.32 473.232 56.432C475.216 58.48 476.207 61.136 476.207 64.4C476.207 67.088 475.6 69.36 474.384 71.216C473.232 73.072 471.696 74 469.776 74C468.56 74 467.567 73.712 466.799 73.136C466.095 72.56 465.743 71.76 465.743 70.736C465.743 70.288 465.808 69.776 465.936 69.2C466.064 68.624 466.16 68.208 466.224 67.952C466.544 66.992 466.703 66.096 466.703 65.264C466.703 64.432 466.479 63.792 466.031 63.344C465.647 62.896 465.071 62.672 464.303 62.672C462.831 62.672 461.456 63.344 460.176 64.688C458.896 65.968 457.872 67.728 457.104 69.968C456.336 72.208 455.952 74.672 455.952 77.36C455.952 81.008 456.688 83.792 458.16 85.712C459.696 87.568 461.839 88.496 464.591 88.496C466.767 88.496 468.752 87.856 470.544 86.576C472.4 85.296 474.224 83.408 476.016 80.912C476.784 79.952 477.648 79.472 478.608 79.472C479.44 79.472 480.079 79.856 480.527 80.624C481.039 81.392 481.296 82.448 481.296 83.792C481.296 86.096 480.752 88.08 479.664 89.744C477.936 92.432 475.664 94.576 472.848 96.176C470.032 97.712 466.799 98.48 463.151 98.48Z" fill="white"/>
<path d="M137.84 144.32C139.227 144.32 140.293 144.96 141.04 146.24C141.893 147.52 142.32 149.28 142.32 151.52C142.32 155.68 141.307 158.987 139.28 161.44C133.307 168.587 127.493 173.6 121.84 176.48C116.293 179.36 109.573 180.8 101.68 180.8C96.1333 180.8 91.0133 180.107 86.32 178.72C81.6267 177.333 75.92 175.253 69.2 172.48C63.12 169.813 57.2533 167.627 51.6 165.92C46.16 175.84 38 180.8 27.12 180.8C21.1467 180.8 16.4 179.467 12.88 176.8C9.25334 174.027 7.44 170.507 7.44 166.24C7.44 161.013 9.94667 156.693 14.96 153.28C19.9733 149.76 26.64 148 34.96 148H37.04L39.92 101.44C40.56 90.7733 42.48 81.9733 45.68 75.04C48.88 68.1067 53.3067 62.1867 58.96 57.28C63.8667 53.0133 69.4667 49.8133 75.76 47.68C82.0533 45.44 88.72 44.32 95.76 44.32C107.28 44.32 116.133 47.3067 122.32 53.28C128.507 59.2533 131.6 67.04 131.6 76.64C131.6 83.1467 130.427 88.4267 128.08 92.48C125.733 96.4267 122.48 98.4 118.32 98.4C115.333 98.4 112.987 97.7067 111.28 96.32C109.573 94.8267 108.72 92.7467 108.72 90.08C108.72 89.12 108.933 87.36 109.36 84.8C110 81.8133 110.32 79.1467 110.32 76.8C110.32 72.32 108.987 68.8 106.32 66.24C103.76 63.5733 99.8133 62.24 94.48 62.24C85.0933 62.24 77.84 65.3333 72.72 71.52C67.6 77.6 64.3467 87.2 62.96 100.32L59.28 136.64C58.7467 141.76 58.0533 146.187 57.2 149.92C64.0267 151.093 72.56 152.96 82.8 155.52C88.7733 157.013 93.36 158.08 96.56 158.72C99.76 159.36 102.587 159.68 105.04 159.68C111.227 159.68 116.507 158.667 120.88 156.64C125.36 154.507 129.573 151.147 133.52 146.56C134.8 145.067 136.24 144.32 137.84 144.32Z" fill="white"/>
<path d="M150.296 94.88C145.816 94.88 142.456 93.8667 140.216 91.84C137.976 89.7067 136.856 86.7733 136.856 83.04C136.856 79.3067 138.296 76.2133 141.176 73.76C144.163 71.2 147.843 69.92 152.216 69.92C156.163 69.92 159.363 70.88 161.816 72.8C164.27 74.72 165.496 77.44 165.496 80.96C165.496 85.2267 164.11 88.64 161.336 91.2C158.563 93.6533 154.883 94.88 150.296 94.88ZM149.016 180.8C142.083 180.8 137.016 178.347 133.816 173.44C130.723 168.533 129.176 162.027 129.176 153.92C129.176 149.12 129.763 142.987 130.936 135.52C132.216 127.947 133.816 120.907 135.736 114.4C136.696 110.987 137.976 108.64 139.576 107.36C141.176 106.08 143.736 105.44 147.256 105.44C152.696 105.44 155.416 107.253 155.416 110.88C155.416 113.547 154.403 119.733 152.376 129.44C149.816 141.173 148.536 149.12 148.536 153.28C148.536 156.48 148.963 158.933 149.816 160.64C150.67 162.347 152.11 163.2 154.136 163.2C156.056 163.2 158.456 161.867 161.336 159.2C164.216 156.533 168.056 152.32 172.856 146.56C174.136 145.067 175.576 144.32 177.176 144.32C178.563 144.32 179.63 144.96 180.376 146.24C181.23 147.52 181.656 149.28 181.656 151.52C181.656 155.787 180.643 159.093 178.616 161.44C168.056 174.347 158.19 180.8 149.016 180.8Z" fill="white"/>
<path d="M229.351 144.32C230.738 144.32 231.805 144.96 232.551 146.24C233.405 147.52 233.831 149.28 233.831 151.52C233.831 155.787 232.818 159.093 230.791 161.44C226.205 167.093 221.191 171.733 215.751 175.36C210.418 178.987 204.338 180.8 197.511 180.8C188.125 180.8 181.138 176.533 176.551 168C172.071 159.467 169.831 148.427 169.831 134.88C169.831 121.867 171.485 107.04 174.791 90.4C178.205 73.76 183.165 59.4667 189.671 47.52C196.285 35.5733 204.125 29.6 213.191 29.6C218.311 29.6 222.311 32 225.191 36.8C228.178 41.4933 229.671 48.2667 229.671 57.12C229.671 69.8133 226.151 84.5333 219.111 101.28C212.071 118.027 202.525 134.613 190.471 151.04C191.218 155.413 192.445 158.56 194.151 160.48C195.858 162.293 198.098 163.2 200.871 163.2C205.245 163.2 209.085 161.973 212.391 159.52C215.698 156.96 219.911 152.64 225.031 146.56C226.311 145.067 227.751 144.32 229.351 144.32ZM209.671 45.44C207.218 45.44 204.445 49.8667 201.351 58.72C198.258 67.5733 195.538 78.56 193.191 91.68C190.845 104.8 189.565 117.387 189.351 129.44C196.925 116.96 202.951 104.48 207.431 92C211.911 79.4133 214.151 67.9467 214.151 57.6C214.151 49.4933 212.658 45.44 209.671 45.44Z" fill="white"/>
<path d="M241.859 94.88C237.379 94.88 234.019 93.8667 231.779 91.84C229.539 89.7067 228.419 86.7733 228.419 83.04C228.419 79.3067 229.859 76.2133 232.739 73.76C235.725 71.2 239.405 69.92 243.779 69.92C247.725 69.92 250.925 70.88 253.379 72.8C255.832 74.72 257.059 77.44 257.059 80.96C257.059 85.2267 255.672 88.64 252.899 91.2C250.125 93.6533 246.445 94.88 241.859 94.88ZM240.579 180.8C233.645 180.8 228.579 178.347 225.379 173.44C222.285 168.533 220.739 162.027 220.739 153.92C220.739 149.12 221.325 142.987 222.499 135.52C223.779 127.947 225.379 120.907 227.299 114.4C228.259 110.987 229.539 108.64 231.139 107.36C232.739 106.08 235.299 105.44 238.819 105.44C244.259 105.44 246.979 107.253 246.979 110.88C246.979 113.547 245.965 119.733 243.939 129.44C241.379 141.173 240.099 149.12 240.099 153.28C240.099 156.48 240.525 158.933 241.379 160.64C242.232 162.347 243.672 163.2 245.699 163.2C247.619 163.2 250.019 161.867 252.899 159.2C255.779 156.533 259.619 152.32 264.419 146.56C265.699 145.067 267.139 144.32 268.739 144.32C270.125 144.32 271.192 144.96 271.939 146.24C272.792 147.52 273.219 149.28 273.219 151.52C273.219 155.787 272.205 159.093 270.179 161.44C259.619 174.347 249.752 180.8 240.579 180.8Z" fill="white"/>
<path d="M279.954 180.8C273.34 180.8 268.06 178.4 264.114 173.6C260.167 168.8 258.194 162.507 258.194 154.72C258.194 146.187 260.167 138.133 264.114 130.56C268.06 122.88 273.287 116.747 279.794 112.16C286.407 107.467 293.394 105.12 300.754 105.12C303.1 105.12 304.647 105.6 305.394 106.56C306.247 107.413 306.94 109.013 307.474 111.36C309.714 110.933 312.06 110.72 314.514 110.72C319.74 110.72 322.354 112.587 322.354 116.32C322.354 118.56 321.554 123.893 319.954 132.32C317.5 144.587 316.274 153.12 316.274 157.92C316.274 159.52 316.647 160.8 317.394 161.76C318.247 162.72 319.314 163.2 320.594 163.2C322.62 163.2 325.074 161.92 327.954 159.36C330.834 156.693 334.727 152.427 339.634 146.56C340.914 145.067 342.354 144.32 343.954 144.32C345.34 144.32 346.407 144.96 347.154 146.24C348.007 147.52 348.434 149.28 348.434 151.52C348.434 155.787 347.42 159.093 345.394 161.44C341.02 166.88 336.38 171.467 331.474 175.2C326.567 178.933 321.82 180.8 317.234 180.8C313.714 180.8 310.46 179.627 307.474 177.28C304.594 174.827 302.407 171.52 300.914 167.36C295.367 176.32 288.38 180.8 279.954 180.8ZM285.714 164.64C288.06 164.64 290.3 163.253 292.434 160.48C294.567 157.707 296.114 154.027 297.074 149.44L302.994 120C298.514 120.107 294.354 121.813 290.514 125.12C286.78 128.32 283.794 132.587 281.554 137.92C279.314 143.253 278.194 148.907 278.194 154.88C278.194 158.187 278.834 160.64 280.114 162.24C281.5 163.84 283.367 164.64 285.714 164.64Z" fill="white"/>
<path d="M346.79 180.8C342.737 180.8 339.857 178.667 338.15 174.4C336.55 170.133 335.75 163.307 335.75 153.92C335.75 140.053 337.723 126.88 341.67 114.4C342.63 111.307 344.177 109.067 346.31 107.68C348.55 106.187 351.643 105.44 355.59 105.44C357.723 105.44 359.217 105.707 360.07 106.24C360.923 106.773 361.35 107.787 361.35 109.28C361.35 110.987 360.55 114.827 358.95 120.8C357.883 125.067 357.03 128.8 356.39 132C355.75 135.2 355.217 139.147 354.79 143.84C358.31 134.667 362.257 127.2 366.63 121.44C371.003 115.68 375.27 111.573 379.43 109.12C383.697 106.667 387.59 105.44 391.11 105.44C398.043 105.44 401.51 108.907 401.51 115.84C401.51 120 400.337 127.52 397.99 138.4C395.963 147.68 394.95 153.813 394.95 156.8C394.95 161.067 396.497 163.2 399.59 163.2C401.723 163.2 404.23 161.92 407.11 159.36C410.097 156.693 414.043 152.427 418.95 146.56C420.23 145.067 421.67 144.32 423.27 144.32C424.657 144.32 425.723 144.96 426.47 146.24C427.323 147.52 427.75 149.28 427.75 151.52C427.75 155.787 426.737 159.093 424.71 161.44C420.123 167.093 415.163 171.733 409.83 175.36C404.603 178.987 398.63 180.8 391.91 180.8C386.47 180.8 382.363 179.253 379.59 176.16C376.817 172.96 375.43 168.373 375.43 162.4C375.43 159.413 376.177 154.08 377.67 146.4C379.057 139.68 379.75 135.04 379.75 132.48C379.75 130.773 379.163 129.92 377.99 129.92C376.603 129.92 374.63 131.733 372.07 135.36C369.617 138.88 367.057 143.573 364.39 149.44C361.83 155.307 359.75 161.493 358.15 168C356.977 173.013 355.59 176.427 353.99 178.24C352.497 179.947 350.097 180.8 346.79 180.8Z" fill="white"/>
<path d="M433.205 180.8C427.125 180.8 422.165 178.4 418.325 173.6C414.592 168.8 412.725 162.507 412.725 154.72C412.725 146.187 414.698 138.133 418.645 130.56C422.592 122.88 427.818 116.747 434.325 112.16C440.938 107.467 447.925 105.12 455.285 105.12C457.632 105.12 459.178 105.6 459.925 106.56C460.778 107.413 461.472 109.013 462.005 111.36C464.032 110.933 466.272 110.72 468.725 110.72C471.285 110.72 473.258 111.36 474.645 112.64C476.032 113.92 476.725 115.733 476.725 118.08C476.725 120.533 476.192 124.8 475.125 130.88C473.952 137.387 473.045 143.627 472.405 149.6C471.765 155.467 471.445 162.08 471.445 169.44C471.445 173.493 470.592 176.427 468.885 178.24C467.285 179.947 464.618 180.8 460.885 180.8C457.258 180.8 454.538 179.947 452.725 178.24C451.018 176.427 450.165 173.547 450.165 169.6L450.325 167.04C447.018 176.213 441.312 180.8 433.205 180.8ZM439.445 164.64C442.432 164.64 445.152 162.56 447.605 158.4C450.058 154.24 452.245 146.827 454.165 136.16L457.205 120C452.832 120.107 448.778 121.813 445.045 125.12C441.312 128.32 438.325 132.587 436.085 137.92C433.845 143.253 432.725 148.907 432.725 154.88C432.725 158.08 433.312 160.533 434.485 162.24C435.765 163.84 437.418 164.64 439.445 164.64Z" fill="white"/>
<path d="M270.424 98.48C267.992 98.48 266.264 97.2 265.24 94.64C264.28 92.08 263.8 87.984 263.8 82.352C263.8 74.032 264.984 66.128 267.352 58.64C267.928 56.784 268.856 55.44 270.136 54.608C271.48 53.712 273.336 53.264 275.704 53.264C276.984 53.264 277.88 53.424 278.392 53.744C278.904 54.064 279.16 54.672 279.16 55.568C279.16 56.592 278.68 58.896 277.72 62.48C277.08 65.04 276.568 67.28 276.184 69.2C275.8 71.056 275.48 73.392 275.224 76.208C276.952 71.216 279 66.992 281.368 63.536C283.8 60.08 286.264 57.52 288.76 55.856C291.32 54.128 293.72 53.264 295.96 53.264C298.2 53.264 299.768 53.776 300.664 54.8C301.624 55.824 302.104 57.392 302.104 59.504C302.104 61.552 301.496 65.264 300.28 70.64C299.768 72.944 299.416 74.672 299.224 75.824C302.424 67.952 305.976 62.224 309.88 58.64C313.784 55.056 317.432 53.264 320.824 53.264C324.984 53.264 327.064 55.344 327.064 59.504C327.064 62 326.36 66.512 324.952 73.04C323.736 78.608 323.128 82.288 323.128 84.08C323.128 86.64 324.056 87.92 325.912 87.92C327.192 87.92 328.696 87.152 330.424 85.616C332.216 84.016 334.584 81.456 337.528 77.936C338.296 77.04 339.16 76.592 340.12 76.592C340.952 76.592 341.592 76.976 342.04 77.744C342.552 78.512 342.808 79.568 342.808 80.912C342.808 83.472 342.2 85.456 340.984 86.864C338.232 90.256 335.256 93.04 332.056 95.216C328.92 97.392 325.336 98.48 321.304 98.48C318.04 98.48 315.576 97.552 313.912 95.696C312.248 93.776 311.416 91.024 311.416 87.44C311.416 85.648 311.864 82.448 312.76 77.84C313.592 73.808 314.008 71.024 314.008 69.488C314.008 68.464 313.656 67.952 312.952 67.952C312.12 67.952 310.936 69.04 309.4 71.216C307.864 73.328 306.328 76.144 304.792 79.664C303.256 83.184 302.008 86.896 301.048 90.8C300.344 93.872 299.512 95.92 298.552 96.944C297.656 97.968 296.184 98.48 294.136 98.48C292.024 98.48 290.424 97.488 289.336 95.504C288.312 93.456 287.8 90.992 287.8 88.112C287.8 85.68 288.12 82.16 288.76 77.552C289.272 73.456 289.528 70.768 289.528 69.488C289.528 68.464 289.176 67.952 288.472 67.952C287.512 67.952 286.296 69.104 284.824 71.408C283.352 73.712 281.912 76.656 280.504 80.24C279.16 83.824 278.072 87.344 277.24 90.8C276.536 93.808 275.704 95.856 274.744 96.944C273.848 97.968 272.408 98.48 270.424 98.48Z" stroke="#EA907A" stroke-width="14" mask="url(#path-1-outside-1)"/>
<path d="M377.862 76.592C378.694 76.592 379.333 76.976 379.781 77.744C380.293 78.512 380.549 79.568 380.549 80.912C380.549 83.472 379.941 85.456 378.725 86.864C376.357 89.744 372.998 92.4 368.646 94.832C364.358 97.264 359.75 98.48 354.822 98.48C348.102 98.48 342.885 96.656 339.173 93.008C335.461 89.36 333.605 84.368 333.605 78.032C333.605 73.616 334.533 69.52 336.389 65.744C338.245 61.904 340.805 58.864 344.069 56.624C347.397 54.384 351.142 53.264 355.302 53.264C359.014 53.264 361.989 54.384 364.229 56.624C366.469 58.8 367.59 61.776 367.59 65.552C367.59 69.968 365.989 73.776 362.789 76.976C359.653 80.112 354.31 82.608 346.758 84.464C348.358 87.408 351.398 88.88 355.878 88.88C358.758 88.88 362.021 87.888 365.669 85.904C369.381 83.856 372.582 81.2 375.27 77.936C376.038 77.04 376.902 76.592 377.862 76.592ZM353.669 62.672C351.301 62.672 349.285 64.048 347.621 66.8C346.021 69.552 345.221 72.88 345.221 76.784V76.976C348.997 76.08 351.974 74.736 354.15 72.944C356.326 71.152 357.414 69.072 357.414 66.704C357.414 65.488 357.062 64.528 356.358 63.824C355.718 63.056 354.821 62.672 353.669 62.672Z" stroke="#EA907A" stroke-width="14" mask="url(#path-1-outside-1)"/>
<path d="M426.792 76.592C427.624 76.592 428.264 76.976 428.712 77.744C429.224 78.512 429.48 79.568 429.48 80.912C429.48 83.472 428.872 85.456 427.656 86.864C425.032 90.064 422.152 92.816 419.016 95.12C415.88 97.36 412.776 98.48 409.704 98.48C404.84 98.48 401.128 95.632 398.568 89.936C395.88 93.328 393.512 95.6 391.464 96.752C389.48 97.904 387.144 98.48 384.456 98.48C380.552 98.48 377.32 97.04 374.76 94.16C372.264 91.216 371.016 87.408 371.016 82.736C371.016 77.616 372.104 72.88 374.28 68.528C376.456 64.112 379.432 60.528 383.208 57.776C387.048 54.96 391.336 53.296 396.072 52.784C397.288 40.368 399.592 29.776 402.984 21.008C406.44 12.176 410.952 7.76001 416.52 7.76001C419.272 7.76001 421.544 9.00801 423.336 11.504C425.192 14 426.12 17.776 426.12 22.832C426.12 30 424.36 38.384 420.84 47.984C417.32 57.584 412.616 67.44 406.728 77.552C406.984 81.264 407.528 83.92 408.36 85.52C409.256 87.12 410.376 87.92 411.72 87.92C413.448 87.92 415.208 87.152 417 85.616C418.792 84.08 421.192 81.52 424.2 77.936C424.968 77.04 425.832 76.592 426.792 76.592ZM415.464 17.168C414.248 17.168 413.032 19.344 411.816 23.696C410.6 27.984 409.544 33.616 408.648 40.592C407.816 47.568 407.208 54.864 406.824 62.48C413.992 46.864 417.576 34.32 417.576 24.848C417.576 22.416 417.352 20.528 416.904 19.184C416.52 17.84 416.04 17.168 415.464 17.168ZM387.816 88.784C389.032 88.784 390.248 88.304 391.464 87.344C392.68 86.32 394.216 84.464 396.072 81.776C395.432 78.32 395.112 74.448 395.112 70.16C395.112 68.624 395.176 66.128 395.304 62.672C391.784 63.76 388.84 66.128 386.472 69.776C384.168 73.36 383.016 77.36 383.016 81.776C383.016 86.448 384.616 88.784 387.816 88.784Z" stroke="#EA907A" stroke-width="14" mask="url(#path-1-outside-1)"/>
<path d="M434.246 46.928C431.558 46.928 429.543 46.32 428.199 45.104C426.855 43.824 426.182 42.064 426.182 39.824C426.182 37.584 427.047 35.728 428.775 34.256C430.567 32.72 432.774 31.952 435.398 31.952C437.766 31.952 439.687 32.528 441.159 33.68C442.631 34.832 443.367 36.464 443.367 38.576C443.367 41.136 442.535 43.184 440.871 44.72C439.207 46.192 436.998 46.928 434.246 46.928ZM433.479 98.48C429.319 98.48 426.278 97.008 424.358 94.064C422.502 91.12 421.574 87.216 421.574 82.352C421.574 79.472 421.926 75.792 422.63 71.312C423.398 66.768 424.358 62.544 425.51 58.64C426.086 56.592 426.855 55.184 427.815 54.416C428.775 53.648 430.311 53.264 432.423 53.264C435.687 53.264 437.319 54.352 437.319 56.528C437.319 58.128 436.711 61.84 435.495 67.664C433.959 74.704 433.19 79.472 433.19 81.968C433.19 83.888 433.446 85.36 433.958 86.384C434.47 87.408 435.335 87.92 436.551 87.92C437.703 87.92 439.143 87.12 440.871 85.52C442.599 83.92 444.903 81.392 447.783 77.936C448.551 77.04 449.415 76.592 450.375 76.592C451.207 76.592 451.846 76.976 452.294 77.744C452.806 78.512 453.062 79.568 453.062 80.912C453.062 83.472 452.454 85.456 451.238 86.864C444.902 94.608 438.983 98.48 433.479 98.48Z" stroke="#EA907A" stroke-width="14" mask="url(#path-1-outside-1)"/>
<path d="M463.151 98.48C457.071 98.48 452.304 96.72 448.848 93.2C445.456 89.616 443.759 84.912 443.759 79.088C443.759 73.904 444.784 69.36 446.832 65.456C448.88 61.552 451.535 58.544 454.799 56.432C458.064 54.32 461.488 53.264 465.072 53.264C468.592 53.264 471.312 54.32 473.232 56.432C475.216 58.48 476.207 61.136 476.207 64.4C476.207 67.088 475.6 69.36 474.384 71.216C473.232 73.072 471.696 74 469.776 74C468.56 74 467.567 73.712 466.799 73.136C466.095 72.56 465.743 71.76 465.743 70.736C465.743 70.288 465.808 69.776 465.936 69.2C466.064 68.624 466.16 68.208 466.224 67.952C466.544 66.992 466.703 66.096 466.703 65.264C466.703 64.432 466.479 63.792 466.031 63.344C465.647 62.896 465.071 62.672 464.303 62.672C462.831 62.672 461.456 63.344 460.176 64.688C458.896 65.968 457.872 67.728 457.104 69.968C456.336 72.208 455.952 74.672 455.952 77.36C455.952 81.008 456.688 83.792 458.16 85.712C459.696 87.568 461.839 88.496 464.591 88.496C466.767 88.496 468.752 87.856 470.544 86.576C472.4 85.296 474.224 83.408 476.016 80.912C476.784 79.952 477.648 79.472 478.608 79.472C479.44 79.472 480.079 79.856 480.527 80.624C481.039 81.392 481.296 82.448 481.296 83.792C481.296 86.096 480.752 88.08 479.664 89.744C477.936 92.432 475.664 94.576 472.848 96.176C470.032 97.712 466.799 98.48 463.151 98.48Z" stroke="#EA907A" stroke-width="14" mask="url(#path-1-outside-1)"/>
<path d="M137.84 144.32C139.227 144.32 140.293 144.96 141.04 146.24C141.893 147.52 142.32 149.28 142.32 151.52C142.32 155.68 141.307 158.987 139.28 161.44C133.307 168.587 127.493 173.6 121.84 176.48C116.293 179.36 109.573 180.8 101.68 180.8C96.1333 180.8 91.0133 180.107 86.32 178.72C81.6267 177.333 75.92 175.253 69.2 172.48C63.12 169.813 57.2533 167.627 51.6 165.92C46.16 175.84 38 180.8 27.12 180.8C21.1467 180.8 16.4 179.467 12.88 176.8C9.25334 174.027 7.44 170.507 7.44 166.24C7.44 161.013 9.94667 156.693 14.96 153.28C19.9733 149.76 26.64 148 34.96 148H37.04L39.92 101.44C40.56 90.7733 42.48 81.9733 45.68 75.04C48.88 68.1067 53.3067 62.1867 58.96 57.28C63.8667 53.0133 69.4667 49.8133 75.76 47.68C82.0533 45.44 88.72 44.32 95.76 44.32C107.28 44.32 116.133 47.3067 122.32 53.28C128.507 59.2533 131.6 67.04 131.6 76.64C131.6 83.1467 130.427 88.4267 128.08 92.48C125.733 96.4267 122.48 98.4 118.32 98.4C115.333 98.4 112.987 97.7067 111.28 96.32C109.573 94.8267 108.72 92.7467 108.72 90.08C108.72 89.12 108.933 87.36 109.36 84.8C110 81.8133 110.32 79.1467 110.32 76.8C110.32 72.32 108.987 68.8 106.32 66.24C103.76 63.5733 99.8133 62.24 94.48 62.24C85.0933 62.24 77.84 65.3333 72.72 71.52C67.6 77.6 64.3467 87.2 62.96 100.32L59.28 136.64C58.7467 141.76 58.0533 146.187 57.2 149.92C64.0267 151.093 72.56 152.96 82.8 155.52C88.7733 157.013 93.36 158.08 96.56 158.72C99.76 159.36 102.587 159.68 105.04 159.68C111.227 159.68 116.507 158.667 120.88 156.64C125.36 154.507 129.573 151.147 133.52 146.56C134.8 145.067 136.24 144.32 137.84 144.32Z" stroke="#EA907A" stroke-width="14" mask="url(#path-1-outside-1)"/>
<path d="M150.296 94.88C145.816 94.88 142.456 93.8667 140.216 91.84C137.976 89.7067 136.856 86.7733 136.856 83.04C136.856 79.3067 138.296 76.2133 141.176 73.76C144.163 71.2 147.843 69.92 152.216 69.92C156.163 69.92 159.363 70.88 161.816 72.8C164.27 74.72 165.496 77.44 165.496 80.96C165.496 85.2267 164.11 88.64 161.336 91.2C158.563 93.6533 154.883 94.88 150.296 94.88ZM149.016 180.8C142.083 180.8 137.016 178.347 133.816 173.44C130.723 168.533 129.176 162.027 129.176 153.92C129.176 149.12 129.763 142.987 130.936 135.52C132.216 127.947 133.816 120.907 135.736 114.4C136.696 110.987 137.976 108.64 139.576 107.36C141.176 106.08 143.736 105.44 147.256 105.44C152.696 105.44 155.416 107.253 155.416 110.88C155.416 113.547 154.403 119.733 152.376 129.44C149.816 141.173 148.536 149.12 148.536 153.28C148.536 156.48 148.963 158.933 149.816 160.64C150.67 162.347 152.11 163.2 154.136 163.2C156.056 163.2 158.456 161.867 161.336 159.2C164.216 156.533 168.056 152.32 172.856 146.56C174.136 145.067 175.576 144.32 177.176 144.32C178.563 144.32 179.63 144.96 180.376 146.24C181.23 147.52 181.656 149.28 181.656 151.52C181.656 155.787 180.643 159.093 178.616 161.44C168.056 174.347 158.19 180.8 149.016 180.8Z" stroke="#EA907A" stroke-width="14" mask="url(#path-1-outside-1)"/>
<path d="M229.351 144.32C230.738 144.32 231.805 144.96 232.551 146.24C233.405 147.52 233.831 149.28 233.831 151.52C233.831 155.787 232.818 159.093 230.791 161.44C226.205 167.093 221.191 171.733 215.751 175.36C210.418 178.987 204.338 180.8 197.511 180.8C188.125 180.8 181.138 176.533 176.551 168C172.071 159.467 169.831 148.427 169.831 134.88C169.831 121.867 171.485 107.04 174.791 90.4C178.205 73.76 183.165 59.4667 189.671 47.52C196.285 35.5733 204.125 29.6 213.191 29.6C218.311 29.6 222.311 32 225.191 36.8C228.178 41.4933 229.671 48.2667 229.671 57.12C229.671 69.8133 226.151 84.5333 219.111 101.28C212.071 118.027 202.525 134.613 190.471 151.04C191.218 155.413 192.445 158.56 194.151 160.48C195.858 162.293 198.098 163.2 200.871 163.2C205.245 163.2 209.085 161.973 212.391 159.52C215.698 156.96 219.911 152.64 225.031 146.56C226.311 145.067 227.751 144.32 229.351 144.32ZM209.671 45.44C207.218 45.44 204.445 49.8667 201.351 58.72C198.258 67.5733 195.538 78.56 193.191 91.68C190.845 104.8 189.565 117.387 189.351 129.44C196.925 116.96 202.951 104.48 207.431 92C211.911 79.4133 214.151 67.9467 214.151 57.6C214.151 49.4933 212.658 45.44 209.671 45.44Z" stroke="#EA907A" stroke-width="14" mask="url(#path-1-outside-1)"/>
<path d="M241.859 94.88C237.379 94.88 234.019 93.8667 231.779 91.84C229.539 89.7067 228.419 86.7733 228.419 83.04C228.419 79.3067 229.859 76.2133 232.739 73.76C235.725 71.2 239.405 69.92 243.779 69.92C247.725 69.92 250.925 70.88 253.379 72.8C255.832 74.72 257.059 77.44 257.059 80.96C257.059 85.2267 255.672 88.64 252.899 91.2C250.125 93.6533 246.445 94.88 241.859 94.88ZM240.579 180.8C233.645 180.8 228.579 178.347 225.379 173.44C222.285 168.533 220.739 162.027 220.739 153.92C220.739 149.12 221.325 142.987 222.499 135.52C223.779 127.947 225.379 120.907 227.299 114.4C228.259 110.987 229.539 108.64 231.139 107.36C232.739 106.08 235.299 105.44 238.819 105.44C244.259 105.44 246.979 107.253 246.979 110.88C246.979 113.547 245.965 119.733 243.939 129.44C241.379 141.173 240.099 149.12 240.099 153.28C240.099 156.48 240.525 158.933 241.379 160.64C242.232 162.347 243.672 163.2 245.699 163.2C247.619 163.2 250.019 161.867 252.899 159.2C255.779 156.533 259.619 152.32 264.419 146.56C265.699 145.067 267.139 144.32 268.739 144.32C270.125 144.32 271.192 144.96 271.939 146.24C272.792 147.52 273.219 149.28 273.219 151.52C273.219 155.787 272.205 159.093 270.179 161.44C259.619 174.347 249.752 180.8 240.579 180.8Z" stroke="#EA907A" stroke-width="14" mask="url(#path-1-outside-1)"/>
<path d="M279.954 180.8C273.34 180.8 268.06 178.4 264.114 173.6C260.167 168.8 258.194 162.507 258.194 154.72C258.194 146.187 260.167 138.133 264.114 130.56C268.06 122.88 273.287 116.747 279.794 112.16C286.407 107.467 293.394 105.12 300.754 105.12C303.1 105.12 304.647 105.6 305.394 106.56C306.247 107.413 306.94 109.013 307.474 111.36C309.714 110.933 312.06 110.72 314.514 110.72C319.74 110.72 322.354 112.587 322.354 116.32C322.354 118.56 321.554 123.893 319.954 132.32C317.5 144.587 316.274 153.12 316.274 157.92C316.274 159.52 316.647 160.8 317.394 161.76C318.247 162.72 319.314 163.2 320.594 163.2C322.62 163.2 325.074 161.92 327.954 159.36C330.834 156.693 334.727 152.427 339.634 146.56C340.914 145.067 342.354 144.32 343.954 144.32C345.34 144.32 346.407 144.96 347.154 146.24C348.007 147.52 348.434 149.28 348.434 151.52C348.434 155.787 347.42 159.093 345.394 161.44C341.02 166.88 336.38 171.467 331.474 175.2C326.567 178.933 321.82 180.8 317.234 180.8C313.714 180.8 310.46 179.627 307.474 177.28C304.594 174.827 302.407 171.52 300.914 167.36C295.367 176.32 288.38 180.8 279.954 180.8ZM285.714 164.64C288.06 164.64 290.3 163.253 292.434 160.48C294.567 157.707 296.114 154.027 297.074 149.44L302.994 120C298.514 120.107 294.354 121.813 290.514 125.12C286.78 128.32 283.794 132.587 281.554 137.92C279.314 143.253 278.194 148.907 278.194 154.88C278.194 158.187 278.834 160.64 280.114 162.24C281.5 163.84 283.367 164.64 285.714 164.64Z" stroke="#EA907A" stroke-width="14" mask="url(#path-1-outside-1)"/>
<path d="M346.79 180.8C342.737 180.8 339.857 178.667 338.15 174.4C336.55 170.133 335.75 163.307 335.75 153.92C335.75 140.053 337.723 126.88 341.67 114.4C342.63 111.307 344.177 109.067 346.31 107.68C348.55 106.187 351.643 105.44 355.59 105.44C357.723 105.44 359.217 105.707 360.07 106.24C360.923 106.773 361.35 107.787 361.35 109.28C361.35 110.987 360.55 114.827 358.95 120.8C357.883 125.067 357.03 128.8 356.39 132C355.75 135.2 355.217 139.147 354.79 143.84C358.31 134.667 362.257 127.2 366.63 121.44C371.003 115.68 375.27 111.573 379.43 109.12C383.697 106.667 387.59 105.44 391.11 105.44C398.043 105.44 401.51 108.907 401.51 115.84C401.51 120 400.337 127.52 397.99 138.4C395.963 147.68 394.95 153.813 394.95 156.8C394.95 161.067 396.497 163.2 399.59 163.2C401.723 163.2 404.23 161.92 407.11 159.36C410.097 156.693 414.043 152.427 418.95 146.56C420.23 145.067 421.67 144.32 423.27 144.32C424.657 144.32 425.723 144.96 426.47 146.24C427.323 147.52 427.75 149.28 427.75 151.52C427.75 155.787 426.737 159.093 424.71 161.44C420.123 167.093 415.163 171.733 409.83 175.36C404.603 178.987 398.63 180.8 391.91 180.8C386.47 180.8 382.363 179.253 379.59 176.16C376.817 172.96 375.43 168.373 375.43 162.4C375.43 159.413 376.177 154.08 377.67 146.4C379.057 139.68 379.75 135.04 379.75 132.48C379.75 130.773 379.163 129.92 377.99 129.92C376.603 129.92 374.63 131.733 372.07 135.36C369.617 138.88 367.057 143.573 364.39 149.44C361.83 155.307 359.75 161.493 358.15 168C356.977 173.013 355.59 176.427 353.99 178.24C352.497 179.947 350.097 180.8 346.79 180.8Z" stroke="#EA907A" stroke-width="14" mask="url(#path-1-outside-1)"/>
<path d="M433.205 180.8C427.125 180.8 422.165 178.4 418.325 173.6C414.592 168.8 412.725 162.507 412.725 154.72C412.725 146.187 414.698 138.133 418.645 130.56C422.592 122.88 427.818 116.747 434.325 112.16C440.938 107.467 447.925 105.12 455.285 105.12C457.632 105.12 459.178 105.6 459.925 106.56C460.778 107.413 461.472 109.013 462.005 111.36C464.032 110.933 466.272 110.72 468.725 110.72C471.285 110.72 473.258 111.36 474.645 112.64C476.032 113.92 476.725 115.733 476.725 118.08C476.725 120.533 476.192 124.8 475.125 130.88C473.952 137.387 473.045 143.627 472.405 149.6C471.765 155.467 471.445 162.08 471.445 169.44C471.445 173.493 470.592 176.427 468.885 178.24C467.285 179.947 464.618 180.8 460.885 180.8C457.258 180.8 454.538 179.947 452.725 178.24C451.018 176.427 450.165 173.547 450.165 169.6L450.325 167.04C447.018 176.213 441.312 180.8 433.205 180.8ZM439.445 164.64C442.432 164.64 445.152 162.56 447.605 158.4C450.058 154.24 452.245 146.827 454.165 136.16L457.205 120C452.832 120.107 448.778 121.813 445.045 125.12C441.312 128.32 438.325 132.587 436.085 137.92C433.845 143.253 432.725 148.907 432.725 154.88C432.725 158.08 433.312 160.533 434.485 162.24C435.765 163.84 437.418 164.64 439.445 164.64Z" stroke="#EA907A" stroke-width="14" mask="url(#path-1-outside-1)"/>
</svg>
